Coordinates
version=1
nRows=17
nColumns=36
inDegrees=yes

Units are S.I. units (second, meters, Newtons, ...)
If the header above contains a line with 'inDegrees', this indicates whether rotational values are in degrees (yes) or radians (no).

endheader
time	pelvis_tilt	pelvis_list	pelvis_rotation	pelvis_tx	pelvis_ty	pelvis_tz	hip_flexion_r	hip_adduction_r	hip_rotation_r	knee_angle_r	knee_angle_r_beta	ankle_angle_r	subtalar_angle_r	mtp_angle_r	hip_flexion_l	hip_adduction_l	hip_rotation_l	knee_angle_l	knee_angle_l_beta	ankle_angle_l	subtalar_angle_l	mtp_angle_l	lumbar_extension	lumbar_bending	lumbar_rotation	arm_flex_r	arm_add_r	arm_rot_r	elbow_flex_r	pro_sup_r	arm_flex_l	arm_add_l	arm_rot_l	elbow_flex_l	pro_sup_l
      2.10000000	     -1.69259160	      7.11911309	     -3.54897000	      0.90626562	      1.12752909	      0.18402078	      1.73518290	     -5.12490314	    -10.29463192	      1.14070132	      0.01990899	    -16.89009238	    -13.36890429	     -7.49999987	      3.35557643	      2.12985221	     -1.77418808	      2.73670730	      0.04776455	    -11.28058149	     14.89809313	     -7.49999987	     -4.71176256	     -6.23086025	     -7.95781846	     19.79155681	     -7.35913171	     11.86169433	     79.03990762	     70.37794984	     36.74801194	    -28.98764515	     44.21445087	     76.22350752	     85.49466947
      2.11666670	     -0.52953840	      7.44085322	     -4.30765878	      0.91234155	      1.13672648	      0.18984023	      0.73919410	     -5.05151075	    -12.36462843	      1.20723190	      0.02107017	    -18.46486969	    -13.25353994	     -7.49999987	      1.83784345	      2.47473304	     -2.07434206	      2.70811822	      0.04726558	    -13.57494486	     14.34864094	     -7.49999987	     -5.49315449	     -6.54951938	     -7.22090225	     20.33778179	     -4.83621864	     10.96351235	     76.44681647	     71.48505814	     34.22367116	    -27.08820369	     37.02934315	     77.32788654	     83.67917864
      2.13333330	      0.46226629	      7.67320367	     -4.83218318	      0.90752627	      1.13820950	      0.19298207	      0.80299942	     -4.99412201	    -12.78516730	      2.33401294	      0.04073621	    -19.58069984	    -14.93005375	     -7.49999987	      1.40027761	      2.72388431	     -2.48243584	      3.85898428	      0.06735198	    -14.98178273	     13.50160960	     -7.49999987	     -6.75381116	     -6.86586023	     -6.50537545	     22.13454024	     -2.23688763	      9.97256160	     73.81539851	     74.52462995	     33.68781299	    -25.24352859	     31.94854938	     76.50581035	     82.93591064
      2.15000000	      1.78141096	      7.56095130	     -5.41330019	      0.90761440	      1.14962287	      0.19890345	      1.27083289	     -4.69719830	    -13.30618926	      4.22630965	      0.07376302	    -22.29263426	    -18.98305854	     -7.49999987	      1.26509173	      2.55568687	     -3.32018077	      5.80958499	      0.10139639	    -17.00044277	     13.59004103	     -7.49999987	     -8.96158700	     -7.09525336	     -6.03533415	     23.57446517	      0.13807566	      9.85214311	     71.02511031	     74.08715409	     33.20011196	    -23.43089058	     26.87624992	     73.47794304	     80.05619934
      2.16666670	      3.41631789	      7.50295586	     -5.91089624	      0.90900086	      1.16816526	      0.20469447	      1.91552725	     -4.55934093	    -13.46759116	      6.68352221	      0.11664947	    -24.81844776	    -22.75021886	     -7.49999987	      1.63510724	      2.28338616	     -5.00408530	      8.65836012	      0.15111689	    -20.70040315	     14.02478957	     -7.49999987	    -12.12841592	     -7.57501923	     -5.20452119	     24.10145636	      2.03651134	      8.45702573	     70.67864784	     74.21996180	     33.13835911	    -21.28206047	     23.48017962	     73.60902593	     79.07834745
      2.18333330	      4.60641030	      7.11099625	     -6.49417732	      0.90570966	      1.18223834	      0.21021466	      3.47534461	     -3.97957532	    -12.33827902	      9.46452814	      0.16518718	    -28.87754807	    -27.85387648	     -7.49999987	      2.85101978	      1.27544606	     -7.09855477	     11.90456153	      0.20777379	    -24.69956917	     15.06828417	     -7.49999987	    -15.23378311	     -7.77464161	     -5.29135754	     24.75153629	      3.82775410	      8.19127969	     70.21530806	     74.46574628	     32.73259689	    -19.79674372	     19.52584916	     73.19601074	     76.17944915
      2.20000000	      5.11747224	      6.52713308	     -7.01886901	      0.89188316	      1.18649311	      0.21098524	      6.46902929	     -3.31207630	    -10.04248169	     13.35677885	      0.23311977	    -32.50150014	    -31.32417598	     -7.49999987	      5.17659404	     -0.12204992	     -8.86503617	     14.99753481	      0.26175636	    -27.24131652	     15.83678891	     -7.49999987	    -17.82158762	     -7.53905668	     -5.38984882	     25.94392668	      5.06865783	      8.25261236	     70.53660360	     75.33029858	     32.56235385	    -18.55141247	     15.82228540	     72.45667861	     74.18509441
      2.21666670	      5.27401930	      6.38580436	     -7.32883245	      0.88448815	      1.18757952	      0.21284701	      9.61170126	     -2.94988379	     -6.70208368	     17.45419489	      0.30463317	    -31.94858555	    -32.67022941	     -7.49999987	      8.24038027	     -1.42839080	    -11.45854703	     18.37882955	      0.32077109	    -30.35349672	     14.53052194	     -7.49999987	    -19.86353160	     -8.07882635	     -5.56420006	     26.78443369	      5.88985463	      8.49625936	     71.58796980	     75.24348854	     32.39188593	    -17.56760131	     13.14169400	     72.93372231	     72.41917300
      2.23333330	      5.16774951	      6.28380124	     -7.68068504	      0.88249188	      1.19297640	      0.21545583	     12.27123500	     -2.53436564	     -3.60217813	     20.78958118	      0.36284664	    -30.22421337	    -32.96275021	     -7.49999987	     11.17607421	     -3.00720146	    -13.92798472	     21.85497465	      0.38144127	    -29.91580072	     12.90911025	     -7.49999987	    -20.85953091	     -8.65082110	     -6.48846059	     26.53124212	      6.64291145	      8.67750054	     72.72375191	     82.25359030	     30.46438807	    -17.05447155	      9.94527650	     75.16031122	     68.78417237
      2.25000000	      4.98363050	      6.18493994	     -8.63306088	      0.87962872	      1.19266429	      0.21681908	     14.09296244	     -2.00925723	     -0.22990673	     23.24812501	      0.40575633	    -27.63058765	    -32.58295905	     -7.49999987	     13.54774580	     -4.42234664	    -15.59393004	     24.74168466	      0.43182386	    -27.59229431	     11.91184497	     -7.49999987	    -21.33671109	     -9.20309165	     -7.01425847	     26.08544395	      7.12656160	     10.00064494	     73.00466368	     81.97661764	     28.73119711	    -16.33137747	      5.83622669	     75.10931321	     67.91556489
      2.26666670	      5.27592656	      6.14325835	     -9.75842667	      0.88244796	      1.18434166	      0.21922532	     13.99231171	     -1.87271348	      2.63220740	     24.89253652	      0.43445672	    -22.41200371	    -31.59657720	     -7.49999987	     14.42811712	     -5.50105749	    -16.82402678	     26.62674521	      0.46472437	    -23.29346499	     10.93121484	     -7.49999987	    -20.92857096	     -9.75764749	     -7.62379864	     24.72735291	      7.55031749	     12.05839840	     72.58942174	     82.67708755	     25.86209364	    -15.60548625	      2.10425855	     76.82316876	     67.34442403
      2.28333330	      4.72845000	      6.57694049	    -11.08269967	      0.87290729	      1.17951773	      0.21945260	     14.68119277	     -2.27882983	      5.09896253	     25.82704055	      0.45076689	    -16.60339887	    -29.66513039	     -7.49999987	     15.93251457	     -5.99732020	    -18.42620836	     28.08294218	      0.49013980	    -18.13373610	      9.83387726	     -7.49999987	    -19.33788831	    -10.61484800	     -7.56525599	     22.81498318	      7.45930688	     13.51383649	     73.50087684	     82.28478302	     23.60123605	    -14.59761544	     -1.06744927	     76.28766030	     66.76866441
      2.30000000	      4.46116860	      7.04720891	    -12.18781166	      0.87208149	      1.17609708	      0.22188122	     14.00780580	     -3.01725710	      6.97183775	     25.31407603	      0.44181397	    -10.20904557	    -26.66164211	     -7.49999987	     16.06261669	     -5.76035335	    -18.54647856	     27.98854732	      0.48849230	    -12.93235065	      9.16497268	     -7.49999987	    -17.35607939	    -11.11440703	     -9.08475972	     21.25212930	      7.87339845	     16.93526843	     71.82523024	     84.16786040	     19.08675676	    -13.89339061	     -5.98342937	     77.37317000	     66.83290207
      2.31666670	      3.61045643	      7.81459711	    -13.59489681	      0.86512337	      1.16421937	      0.22076273	     14.02852004	     -4.10245191	      8.24025273	     24.21598507	      0.42264867	     -4.69562967	    -24.30774547	     -7.49999987	     16.41906421	     -5.09346566	    -18.90949696	     27.30557499	      0.47657219	     -8.75845674	      8.98790031	     -7.49999987	    -14.72659169	    -11.75069106	     -9.42524328	     19.20267332	      7.59969999	     19.32241231	     71.44933437	     85.31219228	     14.88242526	    -12.46341652	    -10.05488900	     76.62291146	     67.22506466
      2.33333330	      2.47633261	      8.32763824	    -15.04663649	      0.85624621	      1.14630533	      0.21981833	     14.82236426	     -4.78021123	      9.73736997	     23.75510953	      0.41460488	      0.64929409	    -22.31508314	     -7.49999987	     17.17494359	     -4.74404681	    -18.77203324	     27.32592619	      0.47692738	     -5.00520384	      7.37561053	     -7.49999987	    -12.05291137	    -12.02369380	     -9.76869803	     17.38119976	      7.16713104	     21.95623732	     71.10653164	     85.76604178	     11.19674441	    -11.03983246	    -13.33043119	     76.06389421	     67.81846974
      2.35000000	      1.34983236	      8.72322204	    -16.76638142	      0.84209168	      1.13588172	      0.21948028	     15.89380577	     -5.18040253	     11.14258045	     23.07353085	      0.40270908	      4.70839677	    -21.13307937	     -7.49999987	     17.77973520	     -4.42493766	    -18.55352730	     26.93309670	      0.47007122	     -1.87827611	      6.10415773	     -7.49999987	     -9.92277497	    -12.03888713	     -9.61488890	     15.53135843	      6.37880296	     24.48334554	     71.59749812	     85.88018446	      8.29862577	     -9.44896116	    -15.84535288	     75.66186680	     68.18529552
      2.36666670	      0.66793754	      8.90033284	    -18.13592584	      0.84106505	      1.11941856	      0.21934179	     16.13621557	     -5.60111048	     12.00149822	     22.23272995	      0.38803434	      7.56464984	    -19.87154583	     -7.49999987	     17.31386194	     -3.90425115	    -17.76037997	     25.96307581	      0.45314116	      0.82903953	      6.08855812	     -7.49999987	     -8.05321070	    -12.00804537	    -10.10467194	     13.90940670	      5.68928613	     27.19813136	     71.44034620	     86.67919262	      5.27728031	     -8.05220318	    -17.63153224	     75.99567361	     69.07772685
